<svg width="95" height="16" viewBox="0 0 95 16" fill="none" xmlns="http://www.w3.org/2000/svg">
<path d="M10.12 3.54H2.98V7.14H9.02V9.66H2.98V15H0.36V0.999999H10.12V3.54ZM19.5959 14C18.8559 14.82 17.8159 15.32 16.4759 15.32C13.4959 15.32 11.3959 12.92 11.3959 9.94C11.3959 6.96 13.4959 4.7 16.4759 4.7C17.8159 4.7 18.8559 5.16 19.5759 5.94C19.9959 6.38 20.0759 7.2 20.2759 7.78L20.6959 7.64C20.5159 7.06 20.1559 6.36 20.1559 5.76L20.1359 5H22.5959V15H20.1359L20.1559 14.18C20.1559 13.58 20.5159 12.86 20.6959 12.3L20.2559 12.16C20.0759 12.72 19.9959 13.54 19.5959 14ZM13.8559 9.94C13.8559 11.62 14.9559 13.04 16.6159 13.04C18.2559 13.04 19.3559 11.58 19.4159 9.94C19.4159 8.18 18.4359 6.98 16.6159 6.98C14.9559 6.98 13.8559 8.24 13.8559 9.94ZM28.2275 5.7C29.2875 4.88 30.3875 4.7 32.3475 4.7V6.98C29.8675 6.98 27.2875 7.86 27.2875 10.64V15H24.8475V5H27.2875V5.3C27.2875 6.06 26.8675 6.98 26.5675 7.68L26.9875 7.86C27.2875 7.16 27.6075 6.16 28.2275 5.7ZM43.4848 5.58C44.1048 5.12 44.9248 4.7 45.9248 4.7C48.0048 4.7 49.6248 5.86 49.6248 8.14V15H47.1648V9.62C47.1648 7.58 46.5448 6.68 45.2248 6.68C43.7848 6.68 43.1848 7.6 43.1848 9.62V15H40.7248V9.62C40.7248 7.58 40.0848 6.68 38.7248 6.68C37.2648 6.68 36.5248 7.6 36.5248 9.62V15H34.0648V5H36.5248V5.12C36.5248 6 36.1248 7.08 35.8848 7.92L36.3048 8.06C36.5648 7.22 36.7048 5.98 37.3248 5.38C37.8448 4.86 38.4648 4.7 39.4848 4.7C40.3848 4.7 41.1648 4.86 41.7048 5.32C42.3848 5.88 42.1048 7.14 41.9848 8L42.4248 8.06C42.5648 7.2 42.7848 6.12 43.4848 5.58ZM52.0773 12.58V0.5H54.5373V11.64C54.5373 12.46 54.8773 12.72 55.7973 12.72H57.0373V15H55.5573C53.2773 15 52.0773 14.14 52.0773 12.58ZM58.4505 9.98C58.4505 6.76 60.7105 4.7 64.1505 4.7C67.6105 4.7 69.8705 6.9 69.8705 9.98C69.8705 13.08 67.6105 15.32 64.1505 15.32C60.7105 15.32 58.4505 13.2 58.4505 9.98ZM61.0505 9.98C61.0505 11.62 61.9505 12.96 64.1505 12.96C66.3705 12.96 67.2705 11.62 67.2705 9.98C67.2705 8.34 66.3705 7.06 64.1505 7.06C61.9305 7.06 61.0505 8.34 61.0505 9.98ZM73.4286 5L75.9686 10.88C76.2686 11.58 76.2486 12.58 76.2486 13.34H76.7086C76.7086 12.56 76.6686 11.58 76.9686 10.88L79.5086 5H82.1886L77.7886 15H75.2486L70.7686 5H73.4286ZM89.4523 15.32C85.3923 15.32 83.2123 12.92 83.2123 9.94C83.2123 6.96 85.5923 4.7 88.9723 4.7C92.4523 4.7 94.6123 7.14 94.5923 9.9C94.5923 10.1 94.5923 10.58 94.5723 10.76L86.1523 10.74C86.1523 11.84 87.1523 13.22 89.2123 13.22C90.5523 13.22 91.3723 12.64 91.5723 12.14H94.3723C94.0723 13.18 92.5923 15.32 89.4523 15.32ZM86.1523 9.1H91.7323C91.7323 7.72 90.7123 6.64 89.0323 6.64C87.3323 6.64 86.1523 7.84 86.1523 9.1Z" fill="white"/>
</svg>
